<svg xmlns="http://www.w3.org/2000/svg" width="657.222" height="136.062" xml:space="preserve"><path d="m289.729 49.781 3.225-1.176c1.221 3.486 4.357 5.533 8.584 5.533 4.096 0 7.407-2.006 7.407-5.578 0-3.312-2.005-4.75-4.794-5.533l-5.881-1.658c-4.358-1.219-6.885-3.484-6.885-7.93 0-5.141 4.357-8.365 9.979-8.365 4.793 0 8.802 1.785 10.414 5.883l-3.05 1.219c-1.352-2.658-3.879-4.139-7.409-4.139-3.18 0-6.448 1.613-6.448 5.1 0 2.439 1.438 3.963 5.098 5.055l5.927 1.785c3.617 1.088 6.492 3.312 6.492 8.234 0 5.316-4.402 9.021-11.023 9.021-5.667 0-10.198-2.57-11.636-7.451zM326.851 28.689h-10.11V25.64h23.704v3.049H330.38v28.018h-3.528V28.689zM352.773 25.598h3.269l11.459 31.109h-3.703l-3.181-9.018h-12.681l-3.268 9.018h-3.528l11.633-31.109zm6.843 19.129-5.275-14.902h-.043l-5.357 14.902h10.675zM378.522 28.689h-10.108V25.64h23.704v3.049h-10.064v28.018h-3.531V28.689zM398.825 25.641h19.955v3.139h-16.428v10.283h13.812V42.2h-13.812v11.37h16.516v3.137h-20.043V25.641zM426.927 25.598h3.529l16.079 25.01h.086V25.641h3.312v31.066h-3.398l-16.211-25.359h-.085v25.359h-3.312V25.598zM457.031 49.781l3.226-1.176c1.221 3.486 4.357 5.533 8.583 5.533 4.097 0 7.407-2.006 7.407-5.578 0-3.312-2.004-4.75-4.793-5.533l-5.881-1.658c-4.358-1.219-6.886-3.484-6.886-7.93 0-5.141 4.356-8.365 9.978-8.365 4.795 0 8.803 1.785 10.416 5.883l-3.051 1.219c-1.351-2.658-3.879-4.139-7.408-4.139-3.18 0-6.449 1.613-6.449 5.1 0 2.439 1.439 3.963 5.098 5.055l5.928 1.785c3.615 1.088 6.492 3.312 6.492 8.234 0 5.316-4.402 9.021-11.025 9.021-5.665 0-10.196-2.57-11.635-7.451zM428.746 102.365v-10.59c0-7.059 5.403-11.242 11.809-11.242 6.622 0 11.852 3.967 11.852 10.764v10.238c0 7.018-5.36 11.244-11.765 11.244-6.493 0-11.896-3.619-11.896-10.414zm20.132-.569v-10.63c0-4.705-3.443-7.496-8.453-7.496-4.533 0-8.148 2.92-8.148 8.062v10.238c0 4.75 3.486 7.67 8.365 7.67 4.486 0 8.236-2.744 8.236-7.844zM460.726 81.101h3.528l16.079 25.01h.088V81.142h3.31v31.07h-3.397l-16.209-25.361h-.088v25.361h-3.311V81.101zM490.831 105.283l3.225-1.176c1.219 3.486 4.359 5.533 8.582 5.533 4.098 0 7.409-2.004 7.409-5.578 0-3.311-2.003-4.748-4.794-5.533l-5.881-1.656c-4.357-1.219-6.885-3.484-6.885-7.93 0-5.143 4.356-8.367 9.977-8.367 4.795 0 8.805 1.789 10.414 5.885l-3.047 1.219c-1.354-2.658-3.881-4.139-7.409-4.139-3.181 0-6.448 1.611-6.448 5.098 0 2.441 1.438 3.967 5.098 5.055l5.926 1.785c3.616 1.09 6.492 3.312 6.492 8.236 0 5.316-4.402 9.02-11.025 9.02-5.663-.001-10.195-2.573-11.634-7.452zM520.937 81.142h3.529v16.254l15.033-16.254h4.271l-11.417 12.203 12.245 18.867h-4.095l-10.459-16.299-5.578 5.709v10.59h-3.529v-31.07zM560.148 81.101h3.269l11.459 31.111h-3.703l-3.182-9.021h-12.68l-3.268 9.021h-3.528l11.633-31.111zm6.843 19.127-5.275-14.9h-.041l-5.361 14.9h10.677zM579.188 105.283l3.226-1.176c1.219 3.486 4.355 5.533 8.583 5.533 4.095 0 7.407-2.004 7.407-5.578 0-3.311-2.005-4.748-4.794-5.533l-5.882-1.656c-4.356-1.219-6.884-3.484-6.884-7.93 0-5.143 4.358-8.367 9.978-8.367 4.795 0 8.803 1.789 10.414 5.885l-3.051 1.219c-1.35-2.658-3.877-4.139-7.406-4.139-3.181 0-6.449 1.611-6.449 5.098 0 2.441 1.438 3.967 5.098 5.055l5.926 1.785c3.616 1.09 6.494 3.312 6.494 8.236 0 5.316-4.402 9.02-11.025 9.02-5.666-.001-10.198-2.573-11.635-7.452zM607.073 105.283l3.223-1.176c1.22 3.486 4.357 5.533 8.584 5.533 4.098 0 7.408-2.004 7.408-5.578 0-3.311-2.006-4.748-4.793-5.533l-5.883-1.656c-4.357-1.219-6.885-3.484-6.885-7.93 0-5.143 4.358-8.367 9.979-8.367 4.793 0 8.803 1.789 10.414 5.885l-3.051 1.219c-1.351-2.658-3.877-4.139-7.408-4.139-3.18 0-6.447 1.611-6.447 5.098 0 2.441 1.438 3.967 5.098 5.055l5.926 1.785c3.617 1.09 6.494 3.312 6.494 8.236 0 5.316-4.402 9.02-11.025 9.02-5.665-.001-10.196-2.573-11.634-7.452zM637.179 81.142h19.955v3.141h-16.426v10.281h13.812v3.139h-13.812v11.371h16.514v3.139h-20.043V81.142z"/><path fill="none" stroke="#000" stroke-width=".75" stroke-miterlimit="10" d="M253.366 0v136.062"/><g fill="#010202" stroke="#000" stroke-miterlimit="10"><path d="m190.975 61.84 17.211-21.705 14.328-17.959h-.104l.098-.123h-15.266l-.096.123h-.048l-36.84 46.172-.022-46.295h-12.727v89.948h12.749V87.689l12.695-15.787 25.733 40.099h14.573zM115.828 21.787H84.596v90.215h12.609V79.519h18.623c18.666 0 28.063-14.341 28.063-28.804.001-14.465-9.397-28.928-28.063-28.928zm0 45.371h-14.529v.01h-4.117v-32.76h.023v-.014h18.623c10.509 0 15.701 8.16 15.701 16.445 0 8.157-5.192 16.319-15.701 16.319zM32.242 48.514h-.041v12.635l.041-.002c10.555 0 19.11 8.554 19.11 19.109s-8.556 19.111-19.11 19.111c-8.374 0-15.484-5.389-18.068-12.885H1.111C4.006 101.033 16.84 112 32.242 112c17.531 0 31.743-14.213 31.743-31.744S49.773 48.514 32.242 48.514z"/><path d="m32.243 80.136.04-.002V67.502l-.04.002c-10.554 0-19.109-8.557-19.109-19.111s8.556-19.109 19.109-19.109c8.374 0 15.484 5.387 18.067 12.883h13.062c-2.895-14.549-15.729-25.518-31.13-25.518C14.712 16.648.5 30.861.5 48.393c0 17.533 14.212 31.743 31.743 31.743z"/></g><path d="M417.202 81.142V102.8c0 3.441-2.09 6.797-6.273 6.797-2.379 0-3.984-.646-5.049-1.639l-2.263 2.723c1.726 1.367 4.089 2.053 6.919 2.053 6.797 0 10.195-4.619 10.195-9.848V81.142h-3.529zM290.969 81.142h11.154c6.014 0 10.021 3.662 10.021 9.324 0 5.188-3.66 9.457-10.412 9.457h-7.234v12.289h-3.529v-31.07zm9.978 15.775c4.749 0 7.668-2.135 7.668-6.451 0-4.051-2.875-6.359-6.928-6.359h-7.189v12.811h6.449zM319.506 81.142h19.956v3.141h-16.427v10.281h13.812v3.139h-13.812v11.371h16.515v3.139h-20.044V81.142zM347.606 81.101h3.531l16.078 25.01h.086V81.142h3.312v31.07h-3.398l-16.211-25.361h-.086v25.361h-3.312V81.101zM377.714 105.283l3.225-1.176c1.219 3.486 4.357 5.533 8.584 5.533 4.095 0 7.406-2.004 7.406-5.578 0-3.311-2.004-4.748-4.793-5.533l-5.883-1.656c-4.355-1.219-6.885-3.484-6.885-7.93 0-5.143 4.357-8.367 9.979-8.367 4.793 0 8.803 1.789 10.414 5.885l-3.051 1.219c-1.35-2.658-3.879-4.139-7.406-4.139-3.182 0-6.449 1.611-6.449 5.098 0 2.441 1.438 3.967 5.098 5.055l5.926 1.785c3.617 1.09 6.493 3.312 6.493 8.236 0 5.316-4.401 9.02-11.024 9.02-5.664-.001-10.197-2.573-11.634-7.452z"/></svg>